<svg xmlns="http://www.w3.org/2000/svg" width="129.426" height="24.685" viewBox="0 0 129.426 24.685">
  <g id="logo" transform="translate(831 203)">
    <path id="code" d="M11.766,21.4a11.709,11.709,0,0,1-1.975.609,9.7,9.7,0,0,1-1.986.2,8.149,8.149,0,0,1-2.924-.486,5.507,5.507,0,0,1-2.145-1.447,6.334,6.334,0,0,1-1.324-2.385,10.979,10.979,0,0,1-.451-3.311,11.059,11.059,0,0,1,.492-3.439A7.15,7.15,0,0,1,2.859,8.6,5.991,5.991,0,0,1,5.08,7.018a7.561,7.561,0,0,1,2.936-.545q.527,0,.99.023t.908.088q.445.064.9.17t.949.27V9.883a9.086,9.086,0,0,0-1.9-.668,7.671,7.671,0,0,0-1.641-.2,4.076,4.076,0,0,0-1.863.393,3.426,3.426,0,0,0-1.271,1.1A4.882,4.882,0,0,0,4.359,12.2a9.231,9.231,0,0,0-.234,2.15,9.344,9.344,0,0,0,.24,2.221,4.587,4.587,0,0,0,.744,1.658A3.256,3.256,0,0,0,6.4,19.264a4.467,4.467,0,0,0,1.863.357,5.054,5.054,0,0,0,.838-.076q.451-.076.914-.2a9.561,9.561,0,0,0,.914-.293q.451-.17.838-.346Zm13.061-5.449a7.914,7.914,0,0,1-.4,2.572,5.691,5.691,0,0,1-1.148,2,5.087,5.087,0,0,1-1.84,1.289,6.374,6.374,0,0,1-2.484.457,6.777,6.777,0,0,1-2.367-.387,4.6,4.6,0,0,1-1.77-1.154,5.109,5.109,0,0,1-1.113-1.922,8.473,8.473,0,0,1-.387-2.689,7.8,7.8,0,0,1,.4-2.578,5.6,5.6,0,0,1,1.16-1.98,5.15,5.15,0,0,1,1.846-1.271,6.382,6.382,0,0,1,2.461-.451,6.721,6.721,0,0,1,2.379.393,4.624,4.624,0,0,1,1.77,1.166,5.114,5.114,0,0,1,1.107,1.916A8.356,8.356,0,0,1,24.827,15.953Zm-2.977.07a4.617,4.617,0,0,0-.7-2.783,2.408,2.408,0,0,0-2.057-.932,2.594,2.594,0,0,0-1.277.293,2.473,2.473,0,0,0-.867.8,3.591,3.591,0,0,0-.5,1.189,6.4,6.4,0,0,0-.158,1.453,4.447,4.447,0,0,0,.75,2.807A2.478,2.478,0,0,0,19.1,19.8a2.559,2.559,0,0,0,1.242-.287,2.325,2.325,0,0,0,.855-.8,3.839,3.839,0,0,0,.492-1.2A6.435,6.435,0,0,0,21.85,16.023ZM34.068,22,34,20.242a8.843,8.843,0,0,1-.773.832,4.6,4.6,0,0,1-.855.639,4.122,4.122,0,0,1-2.133.557,4.042,4.042,0,0,1-1.875-.422,3.826,3.826,0,0,1-1.377-1.2,5.737,5.737,0,0,1-.85-1.893,9.764,9.764,0,0,1-.293-2.484,7.893,7.893,0,0,1,.463-2.842,5.433,5.433,0,0,1,1.283-1.992,5.134,5.134,0,0,1,1.945-1.172,7.594,7.594,0,0,1,2.449-.381,6.955,6.955,0,0,1,.9.059,6.272,6.272,0,0,1,.8.152V5.441H36.54V22Zm-5.227-5.859a9.008,9.008,0,0,0,.135,1.682,3.58,3.58,0,0,0,.4,1.143,1.676,1.676,0,0,0,.65.65,1.847,1.847,0,0,0,.879.205,2.055,2.055,0,0,0,1.383-.586,10.113,10.113,0,0,0,1.395-1.605v-5.2a4.42,4.42,0,0,0-.838-.211,6.155,6.155,0,0,0-1-.082,2.692,2.692,0,0,0-1.242.281,2.747,2.747,0,0,0-.943.8,3.741,3.741,0,0,0-.6,1.26A6.121,6.121,0,0,0,28.841,16.141Zm20.585-1.008q0,.293-.018.762t-.053.879H41.528a3.689,3.689,0,0,0,.24,1.383,2.714,2.714,0,0,0,.68,1,2.947,2.947,0,0,0,1.055.615,4.189,4.189,0,0,0,1.365.211,13.815,13.815,0,0,0,1.857-.135,14.727,14.727,0,0,0,2.057-.439v2.273q-.457.129-1,.234t-1.1.188q-.562.082-1.137.123t-1.113.041A7.188,7.188,0,0,1,42,21.883a4.831,4.831,0,0,1-1.828-1.143,5,5,0,0,1-1.148-1.869,7.638,7.638,0,0,1-.4-2.578,8.284,8.284,0,0,1,.4-2.643,6.058,6.058,0,0,1,1.125-2.039A4.938,4.938,0,0,1,41.908,10.3a5.617,5.617,0,0,1,2.314-.463,5.946,5.946,0,0,1,2.238.393,4.489,4.489,0,0,1,1.629,1.1,4.688,4.688,0,0,1,1,1.676A6.427,6.427,0,0,1,49.426,15.133Zm-2.906-.41a3.447,3.447,0,0,0-.176-1.225,2.424,2.424,0,0,0-.51-.861,2.019,2.019,0,0,0-.75-.5,2.547,2.547,0,0,0-.92-.164,2.345,2.345,0,0,0-1.77.721,3.309,3.309,0,0,0-.82,2.033Z" transform="translate(-751 -205)" fill="#eab308"/>
    <path id="snip" d="M11.953,17.371a4.819,4.819,0,0,1-.463,2.18A4.159,4.159,0,0,1,10.2,21.08a5.76,5.76,0,0,1-1.98.9,10.131,10.131,0,0,1-2.508.293,18.8,18.8,0,0,1-2.332-.141,13.77,13.77,0,0,1-2.227-.469V18.813q.539.188,1.125.352t1.178.287q.592.123,1.178.193a9.542,9.542,0,0,0,1.137.07,5.948,5.948,0,0,0,1.395-.141,2.9,2.9,0,0,0,.938-.387,1.5,1.5,0,0,0,.527-.586,1.7,1.7,0,0,0,.164-.75,1.41,1.41,0,0,0-.322-.943,3.013,3.013,0,0,0-.85-.674,7.647,7.647,0,0,0-1.2-.527q-.674-.234-1.371-.5t-1.371-.609a4.959,4.959,0,0,1-1.2-.844,3.912,3.912,0,0,1-.85-1.2A3.986,3.986,0,0,1,1.3,10.867a4.507,4.507,0,0,1,.328-1.711A3.659,3.659,0,0,1,2.66,7.744a5.2,5.2,0,0,1,1.8-.961,8.681,8.681,0,0,1,2.66-.357q.457,0,.955.041t.984.105q.486.064.938.152t.826.182V9.543a8.505,8.505,0,0,0-.82-.258q-.445-.117-.92-.205t-.955-.135Q7.652,8.9,7.219,8.9a5.768,5.768,0,0,0-1.289.123,2.79,2.79,0,0,0-.867.34,1.306,1.306,0,0,0-.492.533,1.6,1.6,0,0,0-.152.7,1.17,1.17,0,0,0,.322.826,3.1,3.1,0,0,0,.855.621,9.828,9.828,0,0,0,1.207.516q.674.24,1.383.516a13.75,13.75,0,0,1,1.383.627,5.348,5.348,0,0,1,1.207.855,3.9,3.9,0,0,1,.855,1.189A3.784,3.784,0,0,1,11.953,17.371ZM21.206,22V14.242q0-1.957-1.453-1.957a2.075,2.075,0,0,0-1.389.586,10.124,10.124,0,0,0-1.4,1.594V22H14.1V10.094h2.473l.07,1.758a8.229,8.229,0,0,1,.756-.832,4.439,4.439,0,0,1,.85-.639,4.046,4.046,0,0,1,.984-.4,4.6,4.6,0,0,1,1.184-.141,3.933,3.933,0,0,1,1.594.3,3.074,3.074,0,0,1,1.137.844,3.622,3.622,0,0,1,.686,1.313,6.008,6.008,0,0,1,.229,1.717V22ZM33.587,6.836a1.881,1.881,0,0,1-.141.727,1.8,1.8,0,0,1-.393.592,1.88,1.88,0,0,1-.592.4,1.845,1.845,0,0,1-.738.146,1.887,1.887,0,0,1-.744-.146,1.863,1.863,0,0,1-.6-.4,1.8,1.8,0,0,1-.393-.592,1.9,1.9,0,0,1,.393-2.051,1.816,1.816,0,0,1,.6-.4,1.887,1.887,0,0,1,.744-.146,1.833,1.833,0,0,1,1.33.551,1.877,1.877,0,0,1,.533,1.324ZM30.423,12.32H27.06V10.094h6.293v9.68h3.434V22H26.65V19.773h3.773Zm19.343,3.516a7.845,7.845,0,0,1-.463,2.836,5.4,5.4,0,0,1-1.289,1.986,5.187,5.187,0,0,1-1.951,1.172,7.594,7.594,0,0,1-2.449.381,7.12,7.12,0,0,1-1.7-.211v4.652H39.055V10.094h2.473l.07,1.758a8.229,8.229,0,0,1,.756-.832,4.439,4.439,0,0,1,.85-.639,4.046,4.046,0,0,1,.984-.4,4.6,4.6,0,0,1,1.184-.141,4.042,4.042,0,0,1,1.875.422,3.826,3.826,0,0,1,1.377,1.2,5.741,5.741,0,0,1,.85,1.887A9.747,9.747,0,0,1,49.766,15.836Zm-3,.117a8.55,8.55,0,0,0-.141-1.676,3.671,3.671,0,0,0-.4-1.137,1.689,1.689,0,0,0-.645-.65,1.813,1.813,0,0,0-.873-.205,2.075,2.075,0,0,0-1.389.586,10.124,10.124,0,0,0-1.4,1.594v5.2a4.42,4.42,0,0,0,.838.211,6.227,6.227,0,0,0,1.014.082A2.7,2.7,0,0,0,45,19.68a2.73,2.73,0,0,0,.949-.8,3.741,3.741,0,0,0,.6-1.26A6.121,6.121,0,0,0,46.766,15.953Z" transform="translate(-802 -205)" fill="#fb923c"/>
    <g id="icon" transform="translate(-934.234 -301.876)">
      <path id="path3" d="M246.072,123.561V101.814a2.885,2.885,0,0,1,2.962-2.938v2.938c.192.237,3.095-1.456,5.6.55,1.1.883,4.221,4.162,4.221,4.162l-3.178,4.208s3.763,7.247-5.659,11.468h5.24a1.38,1.38,0,0,1,1.411,1.359Z" transform="translate(-131.618)" fill="#eab308" fill-rule="evenodd"/>
      <path id="path2" d="M103.234,142.983V130.177s10.391.479,10.391,9.419V152.4S103.234,151.924,103.234,142.983Z" transform="translate(0 -28.842)" fill="#fb923c" fill-rule="evenodd"/>
      <path id="path1" d="M301.732,101.814a2.888,2.888,0,0,1,2.954-2.938v2.938Z" transform="translate(-182.906)" fill="#fb923c" fill-rule="evenodd"/>
    </g>
  </g>
</svg>
