<svg xmlns="http://www.w3.org/2000/svg" width="302.371" height="268.251" viewBox="0 0 302.371 268.251"><defs><style>.a{fill:#d9d9d9;}.b{fill:#f4c058;}.c{fill:#ea6d67;}.d{fill:#f5f5f5;}.e{fill:#8ac46e;}.f{fill:#a0a0a0;}.g{fill:#fff;}.h{fill:#645d5c;}.i{fill:#fce0cd;}</style></defs><path class="a" d="M302.289,143.308c-22.721,13.154-95.6,55.256-129.278,74.56.007,10.2.093,42.867.09,50.383,37.855-21.767,100.046-57.707,129.27-74.623v-.459c0-1.163,0-2.791,0-4.757C302.35,176.472,302.289,152.05,302.289,143.308Z"/><path class="b" d="M260.2,118.7V119c-21.761,12.6-68.006,39.32-96.289,55.579-39.842-22.909-104.648-60.369-129.4-74.7v-.812C22,106.281,10.237,113.051.394,118.706c27.372,15.854,126.347,73.072,172.227,99.385,33.5-19.2,106.858-61.578,129.668-74.783,0,0,0-.121.007-.356C289.485,135.581,275.132,127.312,260.2,118.7Z"/><path class="a" d="M0,118.677c0,9.876.075,40.353.069,49.34,33.091,19.16,119.646,69.193,173.038,99.894,0-7.992-.086-39.069-.09-49.594C127.091,191.985,26.873,134.048,0,118.468Z"/><path class="c" d="M247.371,231.039c-4.617,2.652-19.593,11.305-26.4,15.225-6.573-3.775-18.232-10.493-26.936-15.516,8.226-4.732,17.274-9.943,26.426-15.226C229.39,220.68,241.121,227.451,247.371,231.039Z"/><path class="d" d="M260.14,81.453v-.025s0-.09,0-.266c-40.239-23.15-100.831-58.17-128.35-74.1C108.569,20.5,61.907,47.465,34.736,63.075c34.136,19.746,96.646,55.857,128.605,74.186C186.882,123.766,233.24,97,260.14,81.453Z"/><path class="a" d="M163.341,137.261c-31.959-18.329-94.469-54.44-128.605-74.186l-.271.155c0,7.569.055,29.992.051,36.645,24.7,14.3,89.319,51.654,129.179,74.574-.041-12.483-.086-25.625-.108-37.329Z"/><path class="a" d="M260.2,115.1c-.013-8.912-.058-27.138-.058-33.648-26.809,15.5-72.938,42.128-96.553,55.667.022,11.7.067,24.846.108,37.329l.217.125C192.2,158.315,238.44,131.591,260.2,119v-.343C260.2,117.784,260.2,116.569,260.2,115.1Z"/><path class="e" d="M34.75,63.066l-.285.164c0,7.569.055,29.992.051,36.645,10.763,6.232,29.1,16.839,49.67,28.721-.015-9.132-.054-29.307-.058-36.983h0C64.447,80.245,46.291,69.746,34.75,63.066Z"/><path class="e" d="M181.083,35.561c-19.693-11.377-37.516-21.684-49.288-28.5l-1.746,1.01C106.3,21.812,61.258,47.838,34.75,63.066c11.541,6.68,29.7,17.179,49.378,28.547C125.961,67.447,161.205,47.069,181.083,35.561Z"/><path class="f" d="M145.41,92.438a15.794,15.794,0,0,1-1.6,6.165c-1.986,3.9-5.818,6.569-9.852,8.269s-4.614,1.258-8.789,2.575c-3.255,1.027-6.662,2.507-8.058,5.8a19.292,19.292,0,0,0-1.031,5.232c-.3,6.747-.245,13.766-.33,20.71a2.28,2.28,0,0,1-1.569,2.191,32.171,32.171,0,0,1-14.656.781,2.927,2.927,0,0,1-1.3-.874,3.948,3.948,0,0,1-1.1-1.831c-.376-3.151-.558-6.187-.664-9.227-3.494.776-7.486,2.116-11.2,1.209-2.583-.63-5.006-2.6-5.4-5.229l-.327-2.172c-.577-10.619-1.154-9.282-1.731-19.9-.194-3.574-.349-7.341,1.282-10.526A17.829,17.829,0,0,1,84.755,89.7,69.047,69.047,0,0,1,99.218,81.6S138.727,91.074,145.41,92.438Z"/><path class="g" d="M137.328,96c2.3-1.288,5.263-2.738,8.123-4.452,4.746-2.839,9.259-6.429,10.192-11.246a20.12,20.12,0,0,0-.031-6.287c-.912-7.372-2.657-16.783-7.25-22.847-2.8-3.711-7.221-8.5-11.53-10.709,0,0-7.477-3.619-14.742-4.093-11.662-.761-17.63,4.211-17.63,4.211a35.26,35.26,0,0,0-13.2,20.8L89.226,73.085l-.734,4.228Z"/><path class="a" d="M138.9,68.138c.038.257-.07-.675-.037-.255.006.076.016.151.023.227.022.228.039.457.056.686.043.574.077,1.15.107,1.725.076,1.449.129,2.9.137,4.352,0,.622,0,1.246-.027,1.868-.012.268-.033.535-.052.8-.028.4-.043-.05.028-.16a1.056,1.056,0,0,0-.054.3c-.055.429.078-.248.117-.235-.184-.061-1.181.935-1.393,1.108-.984.8-1.953,1.621-2.928,2.435a2.016,2.016,0,0,0,0,2.828,2.044,2.044,0,0,0,2.829,0c1.04-.868,2.074-1.744,3.127-2.6a5.18,5.18,0,0,0,2.074-2.357,13.027,13.027,0,0,0,.28-3.679,56.322,56.322,0,0,0-.429-8.108,2.014,2.014,0,0,0-2.461-1.4,2.053,2.053,0,0,0-1.4,2.46Z"/><path class="h" d="M90.579,153.708a7.363,7.363,0,0,1,1.429-6.02,18.189,18.189,0,0,1,5.436-4.376c2.1,1.645,10.633,1.963,16.739.071a2.193,2.193,0,0,0,.582-.281c.076.712.124,1.153.124,1.153.634,5.8-2.879,8.132-5.109,9.459a33.6,33.6,0,0,1-8.5,3.578,13.9,13.9,0,0,1-5.547.544,6.451,6.451,0,0,1-4.622-2.85A4.957,4.957,0,0,1,90.579,153.708Z"/><path class="h" d="M72.716,141.141a8,8,0,0,1,1.144-2.133,19.271,19.271,0,0,1,5.892-4.614,9.9,9.9,0,0,1,3.807-1.581,8.126,8.126,0,0,0,1.709.628c3.714.906,7.7-.433,11.2-1.208.076,2.19.191,4.378.391,6.61l-1.57.259c.117,2.5-2.1,4.451-4.251,5.73a32.508,32.508,0,0,1-8.219,3.459,13.346,13.346,0,0,1-5.363.52,6.193,6.193,0,0,1-4.468-2.753A5.832,5.832,0,0,1,72.716,141.141Z"/><path class="i" d="M105.2,21.041a23.035,23.035,0,0,0,5.484,16.042A19.879,19.879,0,0,0,138.6,39.1a11.488,11.488,0,0,0,7.635-2.39,7.286,7.286,0,0,0,2.772-6.5,5.3,5.3,0,0,0-3.086-3.895,18.979,18.979,0,0,0-6.567-22.174c-8.9-6.321-21.475-5.452-28.786,2.866A22.459,22.459,0,0,0,105.2,21.041Z"/><path class="h" d="M108.1,10.511a22.782,22.782,0,0,0-2.6,7.5,38.087,38.087,0,0,0,15.638-1.885A1.08,1.08,0,0,1,122,16.2c.63.355-.131,1.733-.488,2.362,2.241.632,7.726-.4,10.15-1.732,1.347,3.276,2.723,4.984,5.364,6.22l7.093,2.826a5.054,5.054,0,0,1,1.812.445,18.992,18.992,0,0,0-6.573-22.177c-8.9-6.321-21.475-5.452-28.786,2.866A20.633,20.633,0,0,0,108.1,10.511Z"/><path class="i" d="M91.18,81.592c-2.224-1.387-3.149-3.73-3.512-6.217-.406-2.788.071-6.337,4.127-7.351a5.775,5.775,0,0,1,4.225.788A7.918,7.918,0,0,1,99.911,76.5c-.273,3.3-3.391,6.336-6.672,5.856A5.3,5.3,0,0,1,91.18,81.592Z"/><path class="a" d="M104.043,55.2V77.5c0,2.574,4,2.578,4,0V55.2c0-2.574-4-2.578-4,0Z"/><path class="d" d="M103.044,79.04c-7.14,1.21-14.427,4-24.955,5.743,6.489,3.128,18.7,9.137,30.366,14.977,10.141-4.129,13.029-4.849,19.375-7.282C117.211,87,103.065,79.037,103.044,79.04Z"/><path class="i" d="M121.454,90.55c.59-4.78,5.591-8.765,12.014-6,.97,2.982,2.655,7.491,3.691,11.259-1.411,1.142-2.632,2.134-2.632,2.134-2.067,2.494-6.63,2.045-9.113.535A8.247,8.247,0,0,1,121.454,90.55Z"/><path class="h" d="M117.816,28.317a3.169,3.169,0,0,1-1.29,2.382,2.471,2.471,0,0,1-1.812.343,2.759,2.759,0,0,1-1.992-1.5,3.229,3.229,0,0,1,.8-3.715,2.553,2.553,0,0,1,3.473.192A2.849,2.849,0,0,1,117.816,28.317Z"/><path class="h" d="M129.974,30.8a3.162,3.162,0,0,1-1.29,2.381,2.459,2.459,0,0,1-1.811.343,2.76,2.76,0,0,1-1.993-1.5,3.228,3.228,0,0,1,.8-3.714,2.555,2.555,0,0,1,3.474.191A2.846,2.846,0,0,1,129.974,30.8Z"/></svg>