<svg xmlns="http://www.w3.org/2000/svg" width="349.005" height="302.902" viewBox="0 0 349.005 302.902"><defs><style>.a{fill:#fce0cd;}.b{fill:#7a7473;}.c{fill:#fff;}.d{fill:#b3b3b3;}.e{fill:#d9d9d9;}.f{fill:#efc0a0;}.g{fill:#645d5c;}</style></defs><path class="a" d="M216.215,97.475q-.192-.843-.4-1.782c0-.007,1.847-3.025,2.614-4.743,0,0,.2-.386.474-.93a13.039,13.039,0,0,0,6.292-1.651,17.72,17.72,0,0,0,6.484-8.061c1.558-3.363,2.146-8.965.582-12.181a6.113,6.113,0,0,0-5.168-3.363,6.772,6.772,0,0,0-4.858,1.207S228.048,34.333,179.5,30.9c-32.167-2.277-43.255,10.085-43.255,21.236a81.935,81.935,0,0,0,1.419,12.661c1.128,6.892,1.919,13.82,2.79,20.172,1.456,10.627,4.966,20.179,12.6,26.091a36.97,36.97,0,0,0,11.42,6.174c3.491,6.226,8.183,11.5,15.888,13.215,6,1.334,14.825,1.6,20.766-.353,9.02-2.966,18.719-8.157,24.5-15.969,0,0,.576-.778,1.427-1.923-2.805-1-6.095-2.88-7.138-4.157C218.511,106.312,217.7,103.984,216.215,97.475Z"/><path class="b" d="M222.068,66a1.169,1.169,0,0,0,.3-.129,6.815,6.815,0,0,1,4.721-1.106,6.113,6.113,0,0,1,5.168,3.363l.689,1.414c2.4-5.4,2.822-14.63,2.946-19.11a63.8,63.8,0,0,0-2.364-15.748c-2.4-8.275-5.217-12.937-11.792-19.677C207.44,1.039,192.419-.7,182.4.194c-13.142,1.17-22.446,4.9-31.155,12.635a73.854,73.854,0,0,0-6.627,7.587c-4.711,6.029-6.833,12.961-7.9,20.564a75.4,75.4,0,0,0,.121,18.617.783.783,0,0,0,1.281.492l4.413-3.718c5.437-4.973,14.961-12.4,21.512-15.141.768-.321,1.705.209,1.948,1.361.492,2.331-.675,5.564,1.134,5.014,2.4-.729,8.562-4.154,14.6-6.795a13.582,13.582,0,0,1,11.122.01,29.625,29.625,0,0,1,7.711,5.081c5.666,5.181,8.421,11.364,12.015,20.488.4,1,.967,1.749,2.884,1.312A60.126,60.126,0,0,0,222.068,66Z"/><path class="c" d="M194.56,302.472a5.637,5.637,0,0,0,3.206-6.887c-2.98-9.531-7.54-24.073-12.153-38.761l62.8,10.517,5.438,9.058c-7.418,3.408-46.542,20.791-58.625,25.833"/><path class="d" d="M195.222,302.232c9.7-4.046,36.815-16.043,50.978-22.384a1.8,1.8,0,0,0-.745-3.449H192.2a.329.329,0,0,0-.311.428c2.253,7.184,4.288,13.682,5.875,18.758a5.637,5.637,0,0,1-3.206,6.887Z"/><path class="a" d="M188.3,250.779c-1.094,1.428-2.151,2.885-3.228,4.31,3.629,11.557,7.264,23.142,10.16,32.388q3.565-3.611,7.135-7.217l2.763-2.793c2.711-2.741,4.5-4.763,6.787-7.175-1.879,3.871-2.915,5.543-5.443,11.069-.464,1.015-.278,3.5,1,4.492,1.953,1.5,4.485-.184,5.1-.827,4.328-4.51,7.477-9.069,11.669-12.414a46.1,46.1,0,0,0,16.807-5.142c.667-.363,2.684-2.15,3.311-2.579a22.37,22.37,0,0,1,2.914-1.7c-2.817-9.161-7.918-18.978-13.538-23.951-4.341,3.67-10.414,2.656-15.837,1.792q-4.473-.714-8.981-1.175a25.152,25.152,0,0,0-4.749-.16,18.316,18.316,0,0,0-10.234,4.813A43.122,43.122,0,0,0,188.3,250.779Z"/><path class="c" d="M228.373,112.525q-.707-.183-1.413-.353c-5.534,8.906-16.079,14.713-25.829,17.919-5.941,1.954-14.766,1.687-20.766.353-8.115-1.8-12.887-7.56-16.436-14.219-14.137,5.957-22.669,8.659-29.049,12.709a23.859,23.859,0,0,0-7.22,6.94,48.735,48.735,0,0,0-4.17,11.17,379.694,379.694,0,0,0-6.29,45.21c-.255,7.019-.527,11.717,2.174,15.124,18.264.083,34.666.147,44.345.211a8.789,8.789,0,0,1,8.328,6.14c3.046,9.631,8.03,25.47,13.021,41.361,2.768-3.662,5.407-7.536,8.873-10.581a18.316,18.316,0,0,1,10.234-4.813,25.152,25.152,0,0,1,4.749.16q4.506.461,8.981,1.175c5.423.864,11.5,1.878,15.829-1.8,6.49,5.745,12.282,17.924,14.675,28.111,8.389-2.778,23.806-8.778,33.389-15.945,6.766-5.06,8.583-10.25,10.25-15.167.966-2.851,1.737-9.914,1.847-12.877.143-3.833-1.514-14.817-2.514-20.039-2.222-12.25-4.028-20.472-10.8-44.139-3.417-11.93-8.889-22.986-14.017-28.362-5.706-5.982-12.237-9.48-20.011-12.291C240.638,116.385,234.5,114.112,228.373,112.525Z"/><path class="c" d="M209.95,118.213h0C210,118.189,210,118.186,209.95,118.213Z"/><path class="e" d="M288.131,247.525q9.887,0,19.771-.024l31.024-.039q3.88,0,7.761-.009c3.088,0,3.094-4.8,0-4.8q-10.14,0-20.28.025l-30.882.038q-3.7,0-7.394.009c-3.088,0-3.093,4.8,0,4.8Z"/><path class="e" d="M2.318,247.533c11.016,0,22.031-.047,33.046-.07q2.661,0,5.323-.01c3.088,0,3.094-4.8,0-4.8-11.151,0-22.3.046-33.453.07q-2.459,0-4.916.01c-3.088,0-3.093,4.8,0,4.8Z"/><path class="e" d="M225.432,114.273A128.2,128.2,0,0,1,238.5,118.18c3.953,1.376,7.972,2.7,11.8,4.391,6.434,2.842,12.668,6.905,16.835,12.683,4.577,6.345,7.708,13.779,10.1,21.188,2.423,7.5,4.41,15.189,6.4,22.819,2.517,9.646,4.63,19.4,6.226,29.241.88,5.423,1.95,11.075,1.529,16.587-.444,5.8-1.386,11.566-4.211,16.725-3.494,6.382-10.066,10.216-16.307,13.516a149.389,149.389,0,0,1-19.324,8.39q-1.881.676-3.778,1.306c-2.917.969-1.667,5.606,1.276,4.629a172.969,172.969,0,0,0,19.134-7.633c6.929-3.262,14.513-7.073,19.666-12.889,4.323-4.878,6.695-11.238,7.617-17.623a58.41,58.41,0,0,0,.838-8.918,74.148,74.148,0,0,0-.855-8.884,288.111,288.111,0,0,0-6.118-31.559c-1.78-7.126-3.758-14.2-5.769-21.267-2.4-8.416-5.358-16.742-9.839-24.3a43.1,43.1,0,0,0-15.689-15.476,70.084,70.084,0,0,0-11.29-5.06c-4.431-1.605-8.86-3.226-13.37-4.6-2.2-.672-4.422-1.278-6.664-1.8-3.006-.7-4.288,3.927-1.276,4.628Z"/><path class="e" d="M236.969,231.92c4.926-2.09,9.661-4.524,14.473-6.855a2.413,2.413,0,0,0,.861-3.284,2.463,2.463,0,0,0-3.284-.861c-4.812,2.331-9.546,4.766-14.473,6.855a2.4,2.4,0,0,0-.861,3.284,2.479,2.479,0,0,0,3.284.861Z"/><path class="e" d="M240.152,186.7l7.317,26.786c.813,2.976,5.445,1.713,4.629-1.276l-7.318-26.786c-.813-2.976-5.445-1.713-4.628,1.276Z"/><path class="f" d="M194.549,255.336l-7.34,7.276a2.4,2.4,0,0,0,3.394,3.394l7.34-7.276a2.4,2.4,0,0,0-3.394-3.394Z"/><path class="f" d="M195.228,276.218c3.7-4.325,7.756-8.348,11.8-12.347a2.4,2.4,0,0,0-3.394-3.394c-4.048,4-8.1,8.022-11.8,12.347a2.4,2.4,0,0,0,3.394,3.394Z"/><path class="e" d="M231.17,240.208c3.867,2.885,6.682,7.51,8.922,11.766a68.468,68.468,0,0,1,6,16c.716,3,5.345,1.731,4.628-1.276a73.491,73.491,0,0,0-6.673-17.5c-2.641-4.942-5.923-9.752-10.457-13.135a2.417,2.417,0,0,0-3.284.861,2.458,2.458,0,0,0,.861,3.284Z"/><path class="g" d="M191.441,70.4c.712,2.14.393,7.105-3.679,7.619-5.4.09-5.818-5.895-4.066-8.753C185.13,66.927,189.48,65.869,191.441,70.4Z"/><path class="g" d="M158.966,70.2c.659,2.077.379,6.893-3.355,7.381-4.949.073-5.354-5.734-3.754-8.5C153.167,66.815,157.154,65.8,158.966,70.2Z"/><path class="f" d="M167.066,79.982c-.674,1.206-1.31,2.434-1.882,3.691a5.267,5.267,0,0,0-.6,2.136,3.132,3.132,0,0,0,1.151,2.47,4.42,4.42,0,0,0,1.931,1.026c.47.092.934.1,1.4.16a2.388,2.388,0,0,0,1.7-.7,2.4,2.4,0,0,0,0-3.394l-.485-.375a2.389,2.389,0,0,0-1.212-.328c-.211-.025-.424-.027-.635-.053l.638.086a2.285,2.285,0,0,1-.545-.151l.574.242a2.583,2.583,0,0,1-.458-.279l.486.375a2.767,2.767,0,0,1-.3-.274l.376.486a.63.63,0,0,1-.081-.128l.242.573a1.066,1.066,0,0,1-.061-.216l.085.638a1.519,1.519,0,0,1,.008-.316l-.085.638a2.8,2.8,0,0,1,.175-.572l-.242.573c.578-1.329,1.261-2.618,1.968-3.882a2.5,2.5,0,0,0,.242-1.85,2.4,2.4,0,0,0-4.387-.573Z"/><path class="e" d="M37.551,206.75c30.788.512,101.072.671,126.168.839a8.789,8.789,0,0,1,8.328,6.14c5.972,18.886,19.4,61.642,25.719,81.856a5.633,5.633,0,0,1-5.4,7.317c-27.195-.1-100.463-.36-128.632-.93a5.623,5.623,0,0,1-5.264-3.963C52.916,280.045,38.652,234.777,32.08,214.1A5.639,5.639,0,0,1,37.551,206.75Z"/><path class="f" d="M168.662,101.062a1.762,1.762,0,0,0,.271-.129c0,.046-.5.188-.14.064.2-.07.408-.146.617-.208a11.73,11.73,0,0,1,1.434-.331c.065-.011.468-.078.126-.025s.067-.005.133-.012c.244-.026.489-.045.734-.059a15.264,15.264,0,0,1,1.572-.008q.364.016.728.053a1.425,1.425,0,0,0,.358.04c-.131.03-.439-.071-.111-.009a12.222,12.222,0,0,1,1.321.308c.2.062.4.137.6.211.427.156-.215-.109.057.023.122.059.248.112.371.17a17.107,17.107,0,0,1,1.62.879,2.4,2.4,0,1,0,2.423-4.144,15.255,15.255,0,0,0-7.367-2.331,14.85,14.85,0,0,0-7.17,1.363,2.414,2.414,0,0,0-.861,3.284,2.462,2.462,0,0,0,3.284.861Z"/><path class="g" d="M197.532,61.216c-.14-.008-.278-.021-.417-.038l.638.086a6.275,6.275,0,0,1-1.607-.442l.573.242a6.481,6.481,0,0,1-1.376-.813l.485.375a6.22,6.22,0,0,1-1.032-1.032l.375.486-.042-.055a2.677,2.677,0,0,0-1.434-1.1,2.449,2.449,0,0,0-1.85.242,2.425,2.425,0,0,0-1.1,1.434,2.316,2.316,0,0,0,.242,1.849,8.743,8.743,0,0,0,1.288,1.441,9.139,9.139,0,0,0,1.553,1.1,8.913,8.913,0,0,0,3.707,1.033,2.4,2.4,0,0,0,1.7-4.1,2.635,2.635,0,0,0-1.7-.7Z"/><path class="e" d="M147.532,120.3c-6.233,2.521-12.768,5.042-17.851,9.584-4.377,3.912-6.506,9.259-8.076,14.8-.8,2.817-1.223,5.762-1.744,8.639q-.9,4.974-1.68,9.97c-1.168,7.516-2.132,15.068-2.845,22.641a117.755,117.755,0,0,0-.685,12.677c.044,3.163.411,6.406,2.075,9.166,1.593,2.642,5.745.232,4.144-2.423a13.306,13.306,0,0,1-1.419-6.743,101.873,101.873,0,0,1,.466-10.26q.922-10.62,2.5-21.17,1.425-9.6,3.318-19.126a42.785,42.785,0,0,1,2.086-6.806,18.98,18.98,0,0,1,3.256-5.958c4.579-5.22,11.458-7.822,17.735-10.36a2.475,2.475,0,0,0,1.676-2.952,2.416,2.416,0,0,0-2.952-1.677Z"/><path class="a" d="M174.658,143.615a6.594,6.594,0,0,0-1.683-1.04l.975-2.464a5.07,5.07,0,0,0-1.093-4.725,5.251,5.251,0,0,0-3.648-1.479l1.055-2.207a5.793,5.793,0,0,0,0-3.974A5.144,5.144,0,0,0,169,125.975a6.307,6.307,0,0,0-3.292-.422,54.79,54.79,0,0,0-13.516,2.884,30.618,30.618,0,0,1,1.607-3.332c.831-1.416,2.342-2.182,3.737-2.96,2.65-1.479,5.365-3.087,7.9-4.758a3.3,3.3,0,0,0,1.054-4.715A3.542,3.542,0,0,0,164,110.851c-2.337-.565-5.328.352-8,1.416-2.64,1.054-6.552,2.48-8.681,4.471-2.544,2.374-3.545,5.557-4.716,8.665-.649,1.714-2.022,6.578-2.586,8.335l-.692,4.091a8.359,8.359,0,0,0,.15,3.481q2.557,9.875,5.09,19.763a70.449,70.449,0,0,1,1.757,8.239l.05,2.758c6.007.614,14.136,1.492,20.422,2.328.177-.973.311-1.727.328-1.882.18-1.48.34-3.96.4-5.439.076-1.913.069-4.973.053-7.937l.382.452a3.752,3.752,0,0,0,5.07,2.406,5.253,5.253,0,0,0,2.5-3.329,20.127,20.127,0,0,0,.6-4.451c.107-2.547.092-4.332.1-7.046A4.588,4.588,0,0,0,174.658,143.615Z"/><path class="f" d="M158.214,113.99c.7-.241,1.406-.46,2.126-.633.347-.083.7-.156,1.051-.214.628-.1-.416.024.077-.011.156-.012.312-.03.468-.038a8.39,8.39,0,0,1,.911,0c.08,0,.723.051.265.015s.155.04.245.062c.129.031.257.066.383.106.227.072.435.251-.114-.07.1.058.209.1.31.155.086.048.5.344.128.058s-.021-.007.051.063.238.2.266.291l-.233-.3c.047.065.092.132.135.2.066.1.129.209.188.317s.1.214.156.311c-.356-.575-.134-.337-.059-.1.039.125.066.252.1.379.1.394-.036-.631-.025-.2,0,.11.011.217.009.328-.014.541.045-.2.044-.2a1.722,1.722,0,0,1-.089.375c-.112.5.264-.463.053-.1-.059.1-.119.2-.175.3-.2.369.389-.405.078-.1-.092.092-.177.19-.273.278-.067.061-.136.121-.206.177q.453-.342.138-.121a2.4,2.4,0,0,0,2.422,4.145,5.906,5.906,0,0,0,2.808-4.753,6.514,6.514,0,0,0-1.942-4.623c-2.8-2.721-7.271-1.857-10.571-.723a2.4,2.4,0,0,0,1.276,4.629Z"/><path class="e" d="M138.866,173.731c3.966.368,7.929.775,11.89,1.2,5.311.564,11.155,1.211,16.121,1.882,2.262.305,4.531.618,6.768,1.074l-1.762-2.314c-.284,4.19-.515,8.382-.932,12.561-.583,5.843-1.509,11.639-2.6,17.406a2.463,2.463,0,0,0,1.676,2.952,2.423,2.423,0,0,0,2.953-1.676c1.156-6.084,2.12-12.207,2.745-18.37.434-4.283.672-8.579.963-12.873a2.407,2.407,0,0,0-1.762-2.314c-4.68-.954-9.47-1.455-14.209-2.017-5.423-.642-10.853-1.219-16.286-1.765q-2.779-.279-5.56-.542a2.417,2.417,0,0,0-2.4,2.4,2.452,2.452,0,0,0,2.4,2.4Z"/><path class="f" d="M153.1,139.693a41.366,41.366,0,0,1,7.422-2.173,51.714,51.714,0,0,1,7.523-1.223,2.452,2.452,0,0,0,2.4-2.4,2.423,2.423,0,0,0-2.4-2.4,58.318,58.318,0,0,0-8.8,1.395,46.3,46.3,0,0,0-8.568,2.656,2.414,2.414,0,0,0-.861,3.284,2.464,2.464,0,0,0,3.283.861Z"/><path class="f" d="M155.822,147.163c2.649-.575,5.3-1.14,7.963-1.646q1.944-.37,3.9-.7c.7-.118,1.4-.274,2.1-.346-.307.032.576-.02.5-.019.184,0,.368,0,.553.011q.459.037.171.012a2.474,2.474,0,0,0,2.953-1.676,2.42,2.42,0,0,0-1.677-2.953c-3.049-.5-6.232.379-9.234.941-2.845.534-5.676,1.135-8.5,1.75a2.4,2.4,0,1,0,1.276,4.628Z"/><path class="g" d="M282.845,94.313c3.163.925,6.738,1.787,9.97.655a8.527,8.527,0,0,0,5.579-5.943c1.45-6.747-7.276-10.054-12.472-10.849-1.434-.22-3.042-.509-4.4.177a3.572,3.572,0,0,0-1.895,4.187c.863,3.11,4.666,4.317,7.364,5.248,5.1,1.763,11.371,2.809,16.389.213a8.168,8.168,0,0,0,4.323-5.484,9.717,9.717,0,0,0-3.129-8.754c-2.207-2.1-5.029-3.438-7.733-4.771a45.476,45.476,0,0,0-7.886-3.187,29.319,29.319,0,0,0-7.94-1.022c-2.869.016-7.367.071-7.5,3.965-.111,3.166,2.968,4.959,5.373,6.258a64.289,64.289,0,0,0,7.7,3.548,60.541,60.541,0,0,0,16.321,3.413,14.413,14.413,0,0,0,8.312-1.346,8.69,8.69,0,0,0,4.633-6.984c.335-5.771-5.736-10.1-10.108-12.637a74.632,74.632,0,0,0-16.573-7.063c-4.272-1.226-10.253-2.7-14.356-.187-1.645,1.006-3.043,2.952-2.5,4.948a6.35,6.35,0,0,0,2.646,3.266c2.827,2.056,6.405,3.212,9.7,4.271a129.488,129.488,0,0,0,13.863,3.534A136.016,136.016,0,0,0,312.9,71.992c4.654.435,10.839-2.323,11.639-7.407.4-2.58-1.011-4.872-2.575-6.8a25.206,25.206,0,0,0-5.651-5.025,59.526,59.526,0,0,0-8.357-4.3,69.542,69.542,0,0,0-9.1-3.456,47.829,47.829,0,0,0-8.908-1.691,2.417,2.417,0,0,0-2.4,2.4,2.452,2.452,0,0,0,2.4,2.4,48.2,48.2,0,0,1,14.114,3.844c4.2,1.781,8.784,3.719,12.2,6.814a12.632,12.632,0,0,1,3.434,4.267,3.927,3.927,0,0,0,.164.649c-.078-.222,0-.026-.055.2a3.323,3.323,0,0,1-1.136,1.656c-2.67,2.287-6.1,1.677-9.282,1.247a137.953,137.953,0,0,1-23.015-5.038,36.811,36.811,0,0,1-7.772-3.14c-.245-.141-.486-.288-.722-.443-.072-.047-.67-.479-.379-.254s-.25-.219-.333-.3-.5-.586-.247-.24c.259.362-.066-.13-.111-.236,0-.009.227.619.136.289-.06-.215.048-.228.035.357.006-.3-.038-.425-.161.628a1.472,1.472,0,0,1,.212-.363c-.233.163.2-.146.2-.15a3.488,3.488,0,0,1,1.439-.506,12.506,12.506,0,0,1,2.279-.1,27.291,27.291,0,0,1,5.979,1.015,71.254,71.254,0,0,1,13.339,5.214c3.568,1.772,7.55,3.863,9.8,7.271,1.08,1.635,1.428,3.373-.121,4.873A6.887,6.887,0,0,1,305.27,77.3a48.28,48.28,0,0,1-13.219-2A54.206,54.206,0,0,1,280,70.134a7.184,7.184,0,0,1-1.053-.654c-.027-.023-.631-.679-.633-.68l0,.041a1.309,1.309,0,0,1-.461.9c.036.027.147-.034.178-.016.324.194,1.776-.116,2.171-.128a25.021,25.021,0,0,1,6.118.5,44.236,44.236,0,0,1,12.111,5.121c1.88,1.071,3.817,2.421,4.483,4.589a3.117,3.117,0,0,1-1.178,3.6c-3.117,2.228-7.853,1.342-11.277.424a31.632,31.632,0,0,1-3.465-1.143q-.772-.3-1.519-.668c-.069-.033-1.3-.86-1.275-.865-.108.026-.152,1.122-.279,1.283-.513.649-.765.17-.235.286.445.1.94.078,1.394.15a20.6,20.6,0,0,1,3.753.988c1.51.547,4.35,1.576,4.86,3.314.442,1.5-1.231,2.86-2.485,3.275-2.268.753-4.895-.125-7.079-.763-2.971-.869-4.24,3.762-1.276,4.628Z"/></svg>